<svg xmlns="http://www.w3.org/2000/svg" width="512" height="512"><path d="M40 248a7.966 7.966 0 00.07 1.058l30.149 226.114A24.074 24.074 0 0094.008 496H432a24.027 24.027 0 0024-24v-31.47l31.93-239.472c0-.035 0-.069.008-.1.019-.162.029-.326.039-.491.007-.12.016-.239.018-.359V168a8 8 0 00-8-8H320a8 8 0 00-8 8v32.1c0 .12.011.239.018.359.01.165.02.329.039.491 0 .034 0 .068.008.1l14.749 110.615c-16.084-1.222-21.056-5.575-22.512-7.616a5.983 5.983 0 01-.861-5.118 7.641 7.641 0 00-.6-7.417A7.971 7.971 0 00296 288c-15.917 0-28.185 3.1-38.29 7.706l6.22-46.648A7.966 7.966 0 00264 248a104.111 104.111 0 00-56.755-92.635 7.986 7.986 0 00.646-4.68l-8-48A8 8 0 00192 96h-8V64h56a8 8 0 008-8V24a8 8 0 00-8.532-7.982l-120 8a8 8 0 00-7.057 5.452l-8 24A8 8 0 00112 64h8v32h-8a8 8 0 00-7.891 6.685l-8 48a7.986 7.986 0 00.646 4.68A104.111 104.111 0 0040 248zm328 232H174.967a6.974 6.974 0 01-6.967-6.967v-82.066a6.974 6.974 0 016.967-6.967h194.066a6.974 6.974 0 016.967 6.967v82.066a6.974 6.974 0 01-6.967 6.967zM192 352h160v16H192zm248 120a8.009 8.009 0 01-8 8h-41.083a22.9 22.9 0 001.083-6.967V448h48zm1-40h-49v-41.033A22.993 22.993 0 00369.033 368H368v-24c0-.224-.015-.444-.033-.664 0-.031-.008-.088-.013-.138v-.027a41.974 41.974 0 00-4.673-14.982 29.579 29.579 0 00-20.181-15.445L329.137 208h141.726zM328 176h144v16H328zm-37.082 136.823C297.683 322.894 312.85 328 336 328c6 0 10.133 2.369 13.02 7.457.1.181.2.362.292.543H229.021c3.414-2.616 6.665-5.363 9.888-8.09 13.026-11.023 25.406-21.5 48.606-23.549a21.459 21.459 0 003.403 8.462zM125.891 39.625L232 32.551V48H123.1zM136 64h32v32h-32zm-22.556 80l5.333-32h66.446l5.333 32h-77.112zM144 160h16a88.1 88.1 0 0188 87.48l-7.844 58.82c-4.117 3.081-7.91 6.286-11.583 9.394C215.7 326.591 204.579 336 184 336a8 8 0 00-8 8v24h-1.033A22.993 22.993 0 00152 390.967v82.066a22.9 22.9 0 001.083 6.967H94.008a8.026 8.026 0 01-7.93-6.943L56 247.48A88.1 88.1 0 01144 160z"/><path d="M272 400a32 32 0 1032 32 32.036 32.036 0 00-32-32zm0 48a16 16 0 1116-16 16.019 16.019 0 01-16 16zM400 288c22.8 0 40-10.317 40-24s-17.2-24-40-24-40 10.317-40 24 17.2 24 40 24zm0-32c15.488 0 24 6.009 24 8s-8.512 8-24 8-24-6.009-24-8 8.512-8 24-8zM104 280h96a8 8 0 008-8v-48a8 8 0 00-8-8h-96a8 8 0 00-8 8v48a8 8 0 008 8zm8-48h80v32h-80z"/></svg>